<?xml version="1.0" standalone="no"?>
<!DOCTYPE svg PUBLIC "-//W3C//DTD SVG 20010904//EN"
 "http://www.w3.org/TR/2001/REC-SVG-20010904/DTD/svg10.dtd">
<svg version="1.0" xmlns="http://www.w3.org/2000/svg"
 width="260.000000pt" height="260.000000pt" viewBox="0 0 260.000000 260.000000"
 preserveAspectRatio="xMidYMid meet">
<metadata>
Created by potrace 1.14, written by Peter Selinger 2001-2017
</metadata>
<g transform="translate(0.000000,260.000000) scale(0.100000,-0.100000)"
fill="#000000" stroke="none">
<path d="M1128 2375 c-3 -3 -58 -17 -122 -30 -345 -73 -638 -362 -752 -740
-25 -83 -28 -104 -28 -260 1 -188 12 -247 77 -409 79 -196 214 -376 362 -481
282 -200 680 -256 992 -139 241 91 434 247 565 460 54 87 105 211 92 223 -5 5
-134 49 -286 98 l-277 90 -31 -64 c-63 -127 -180 -222 -315 -258 -158 -41
-329 8 -449 129 -189 189 -188 489 1 673 79 76 202 133 290 133 l43 0 0 290 0
290 -78 0 c-43 0 -81 -2 -84 -5z"/>
<path d="M1510 1586 c0 -2 8 -10 18 -17 15 -13 16 -12 3 4 -13 16 -21 21 -21
13z"/>
<path d="M1600 1421 c0 -6 4 -13 10 -16 6 -3 7 1 4 9 -7 18 -14 21 -14 7z"/>
<path d="M1420 1265 c0 -5 5 -17 10 -25 5 -8 10 -10 10 -5 0 6 -5 17 -10 25
-5 8 -10 11 -10 5z"/>
<path d="M1597 1161 c-4 -17 -3 -21 5 -13 5 5 8 16 6 23 -3 8 -7 3 -11 -10z"/>
</g>
</svg>
